<svg xmlns="http://www.w3.org/2000/svg" viewBox="0 0 192 192">
  <!-- Background with gradient -->
  <defs>
    <linearGradient id="bgGradient" x1="0%" y1="0%" x2="100%" y2="100%">
      <stop offset="0%" style="stop-color:#2563eb;stop-opacity:1" />
      <stop offset="100%" style="stop-color:#3b82f6;stop-opacity:1" />
    </linearGradient>
    <linearGradient id="bookGradient" x1="0%" y1="0%" x2="100%" y2="100%">
      <stop offset="0%" style="stop-color:#fbbf24;stop-opacity:1" />
      <stop offset="100%" style="stop-color:#f59e0b;stop-opacity:1" />
    </linearGradient>
  </defs>
  
  <!-- Background -->
  <rect width="192" height="192" fill="url(#bgGradient)" rx="32"/>
  
  <!-- Book with interactive elements -->
  <g transform="translate(48, 32)">
    <!-- Book spine -->
    <rect x="0" y="0" width="96" height="128" rx="8" fill="url(#bookGradient)"/>
    
    <!-- Book pages -->
    <g fill="#ffffff">
      <rect x="8" y="8" width="80" height="112" rx="4"/>
      <rect x="12" y="16" width="72" height="4" rx="2"/>
      <rect x="12" y="28" width="56" height="4" rx="2"/>
      <rect x="12" y="40" width="64" height="4" rx="2"/>
      <rect x="12" y="52" width="48" height="4" rx="2"/>
      <rect x="12" y="64" width="72" height="4" rx="2"/>
      <rect x="12" y="76" width="56" height="4" rx="2"/>
      <rect x="12" y="88" width="64" height="4" rx="2"/>
      <rect x="12" y="100" width="40" height="4" rx="2"/>
    </g>
    
    <!-- Interactive elements -->
    <g fill="#ef4444">
      <!-- Red dot for interactivity -->
      <circle cx="88" cy="16" r="4">
        <animate attributeName="r" values="4;6;4" dur="2s" repeatCount="indefinite"/>
      </circle>
    </g>
    
    <!-- Bookmark -->
    <path d="M8 16 L8 40 L16 36 L16 16 Z" fill="#ef4444"/>
  </g>
  
  <!-- Animated sparkle for interactivity -->
  <g fill="#ffffff">
    <circle cx="160" cy="32" r="3">
      <animate attributeName="opacity" values="0.2;1;0.2" dur="3s" repeatCount="indefinite"/>
    </circle>
    <circle cx="170" cy="48" r="2">
      <animate attributeName="opacity" values="1;0.2;1" dur="2s" repeatCount="indefinite"/>
    </circle>
    <circle cx="150" cy="42" r="2.5">
      <animate attributeName="opacity" values="0.5;1;0.5" dur="2.5s" repeatCount="indefinite"/>
    </circle>
  </g>
</svg>