<svg xmlns="http://www.w3.org/2000/svg" viewBox="0 0 192 192">
  <defs>
    <!-- Gradient definitions -->
    <linearGradient id="blueGradient" x1="0%" y1="0%" x2="100%" y2="100%">
      <stop offset="0%" style="stop-color:#2563eb;stop-opacity:1" />
      <stop offset="100%" style="stop-color:#3b82f6;stop-opacity:1" />
    </linearGradient>
    
    <linearGradient id="neonGradient" x1="0%" y1="0%" x2="100%" y2="100%">
      <stop offset="0%" style="stop-color:#60a5fa;stop-opacity:1" />
      <stop offset="100%" style="stop-color:#93c5fd;stop-opacity:1" />
    </linearGradient>
  </defs>
  
  <!-- Background circle -->
  <circle cx="96" cy="96" r="88" fill="white" stroke="url(#blueGradient)" stroke-width="2"/>
  
  <!-- Simplified digital wave -->
  <path d="M10,80 Q30,70 50,80 T90,80 T130,80 T170,80" fill="none" stroke="url(#neonGradient)" stroke-width="2" opacity="0.3"/>
  <path d="M10,90 Q30,100 50,90 T90,90 T130,90 T170,90" fill="none" stroke="url(#neonGradient)" stroke-width="2" opacity="0.2"/>
  
  <!-- Interconnected letters -->
  <g fill="url(#blueGradient)" font-family="Arial, sans-serif" font-weight="bold" text-anchor="middle">
    <!-- Letter R -->
    <text x="50" y="90" font-size="48">R</text>
    
    <!-- Letter H -->
    <text x="85" y="90" font-size="48">H</text>
    
    <!-- Letter P -->
    <text x="120" y="90" font-size="48">P</text>
    
    <!-- Letter S -->
    <text x="155" y="90" font-size="48">S</text>
    
    <!-- Connection lines between letters -->
    <line x1="65" y1="80" x2="75" y2="80" stroke="url(#neonGradient)" stroke-width="2" stroke-dasharray="2,2"/>
    <line x1="100" y1="80" x2="110" y2="80" stroke="url(#neonGradient)" stroke-width="2" stroke-dasharray="2,2"/>
    <line x1="135" y1="80" x2="145" y2="80" stroke="url(#neonGradient)" stroke-width="2" stroke-dasharray="2,2"/>
  </g>
  
  <!-- Simplified open book -->
  <g transform="translate(96, 130)" opacity="0.7">
    <path d="M-20,0 Q-20,-15 0,-15 Q20,-15 20,0 Q20,15 0,15 Q-20,15 -20,0" fill="none" stroke="url(#neonGradient)" stroke-width="2"/>
    <path d="M0,-15 L0,15" stroke="url(#neonGradient)" stroke-width="2"/>
  </g>
</svg>